<svg xmlns="http://www.w3.org/2000/svg" xmlns:xlink="http://www.w3.org/1999/xlink" width="480" height="480"><defs><clipPath id="b"><path d="M0 0h480v480H0z"/></clipPath><clipPath id="c"><path d="M0 0h480v480H0z"/></clipPath><clipPath id="d"><path d="M0 0h480v480H0z"/></clipPath><clipPath id="e"><path d="M0 0h480v480H0z"/></clipPath><clipPath id="f"><path d="M0 0h480v480H0z"/></clipPath><clipPath id="g"><path d="M0 0h480v480H0z"/></clipPath><clipPath id="h"><path d="M0 0h480v480H0z"/></clipPath><clipPath id="i"><path d="M0 0h480v480H0z"/></clipPath><clipPath id="j"><path d="M0 0h480v480H0z"/></clipPath><mask id="l"><g filter="url(#a)"><path d="M0 0h480v480H0z" style="fill:#000;fill-opacity:.4;stroke:none"/></g></mask><mask id="n"><g filter="url(#a)"><path d="M0 0h480v480H0z" style="fill:#000;fill-opacity:.501961;stroke:none"/></g></mask><mask id="p"><g filter="url(#a)"><path d="M0 0h480v480H0z" style="fill:#000;fill-opacity:.501961;stroke:none"/></g></mask><mask id="r"><g filter="url(#a)"><path d="M0 0h480v480H0z" style="fill:#000;fill-opacity:.501961;stroke:none"/></g></mask><mask id="t"><g filter="url(#a)"><path d="M0 0h480v480H0z" style="fill:#000;fill-opacity:.501961;stroke:none"/></g></mask><mask id="v"><g filter="url(#a)"><path d="M0 0h480v480H0z" style="fill:#000;fill-opacity:.501961;stroke:none"/></g></mask><mask id="x"><g filter="url(#a)"><path d="M0 0h480v480H0z" style="fill:#000;fill-opacity:.501961;stroke:none"/></g></mask><mask id="z"><g filter="url(#a)"><path d="M0 0h480v480H0z" style="fill:#000;fill-opacity:.501961;stroke:none"/></g></mask><mask id="B"><g filter="url(#a)"><path d="M0 0h480v480H0z" style="fill:#000;fill-opacity:.501961;stroke:none"/></g></mask><g id="k" clip-path="url(#b)"><path d="M363.91 118.242c-68.555-68.554-179.7-68.554-248.254 0-68.55 68.555-68.55 179.7 0 248.254 68.555 68.55 179.7 68.55 248.254 0 68.55-68.555 68.55-179.7 0-248.254m0 0" style="stroke:none;fill-rule:nonzero;fill:#09136e;fill-opacity:1"/></g><g id="m" clip-path="url(#c)"><path d="M348.648 359.078h-13.484a.45.45 0 0 1-.45-.45c0-.245.204-.444.45-.444h13.484c.247 0 .446.199.446.445s-.2.45-.446.45m-10.875 5.081H322.09a.45.45 0 0 1-.45-.445c0-.25.204-.45.45-.45h15.683a.448.448 0 1 1 0 .895m-7.445-5.082h-3.933a.45.45 0 0 1-.446-.45c0-.245.2-.444.446-.444h3.933c.246 0 .445.199.445.445s-.199.45-.445.45M142.09 126.004h-5.672a.447.447 0 1 1 0-.895h5.672a.447.447 0 1 1 0 .895m-8.867 0h-12.801a.447.447 0 1 1 0-.895h12.8a.447.447 0 0 1 .001.895m25.156 0h-12.8a.447.447 0 1 1 0-.895h12.8c.246 0 .45.2.45.45a.45.45 0 0 1-.45.445m-18.035-6.512h-12.797a.45.45 0 1 1 0-.898h12.797a.45.45 0 0 1 0 .898m8.734 0h-5.918a.45.45 0 0 1 0-.898h5.918a.45.45 0 1 1 0 .898m0 0" style="stroke:none;fill-rule:nonzero;fill:#fff;fill-opacity:1"/></g><g id="o" clip-path="url(#d)"><path d="M96.676 165.25h97.617v43.203H96.676Zm0 0" style="stroke:none;fill-rule:nonzero;fill:#fff;fill-opacity:1"/></g><g id="q" clip-path="url(#e)"><path d="M96.676 212.969h97.617v43.203H96.676Zm0 0" style="stroke:none;fill-rule:nonzero;fill:#fff;fill-opacity:1"/></g><g id="s" clip-path="url(#f)"><path d="M96.676 260.61h97.617v51.78H96.676Zm0 0" style="stroke:none;fill-rule:nonzero;fill:#fff;fill-opacity:1"/></g><g id="u" clip-path="url(#g)"><path d="M228.02 275.96h160.37v65.817H228.02Zm0 0" style="stroke:none;fill-rule:nonzero;fill:#fff;fill-opacity:1"/></g><g id="w" clip-path="url(#h)"><path d="M133.152 317.605h89.457v22.579h-89.457Zm0 0" style="stroke:none;fill-rule:nonzero;fill:#fff;fill-opacity:1"/></g><g id="y" clip-path="url(#i)"><path d="M395.484 247.227c4.047 5.378 2.97 13.02-2.41 17.066-5.379 4.047-13.02 2.969-17.066-2.41-4.047-5.375-2.969-13.016 2.41-17.063 5.375-4.047 13.016-2.968 17.066 2.407m0 0" style="stroke:none;fill-rule:nonzero;fill:#ded7ff;fill-opacity:1"/></g><g id="A" clip-path="url(#j)"><path d="M384.52 264.797a6.1 6.1 0 0 1-1.204 8.535 6.094 6.094 0 0 1-7.328-9.738 6.093 6.093 0 0 1 8.532 1.203m0 0" style="stroke:none;fill-rule:nonzero;fill:#ded7ff;fill-opacity:1"/></g><symbol id="C" overflow="visible"><path d="M38.875-20.469v3.047H10.297q.404 6.41 3.86 9.766 3.468 3.361 9.656 3.36 3.574.002 6.937-.876 3.355-.873 6.672-2.625v5.875a36.5 36.5 0 0 1-6.86 2.156q-3.514.75-7.125.75-9.046 0-14.343-5.265c-3.524-3.52-5.281-8.274-5.281-14.266q0-9.28 5.015-14.734 5.014-5.451 13.531-5.453 7.64 0 12.078 4.922 4.438 4.907 4.438 13.343m-6.219-1.828q-.064-5.09-2.86-8.125-2.782-3.047-7.374-3.047-5.204 0-8.328 2.938-3.113 2.94-3.594 8.265Zm0 0" style="stroke:none"/></symbol><symbol id="D" overflow="visible"><path d="M28.438-32.016a8.1 8.1 0 0 0-2.282-.89 11.8 11.8 0 0 0-2.718-.297q-5.269.002-8.094 3.437-2.813 3.423-2.813 9.844V0h-6.25v-37.828h6.25v5.875q1.952-3.434 5.094-5.11 3.14-1.67 7.64-1.671.639 0 1.407.078.78.08 1.734.25Zm0 0" style="stroke:none"/></symbol><symbol id="E" overflow="visible"><path d="M12.531-5.672v20.063h-6.25v-52.22h6.25v5.735q1.95-3.373 4.938-5 2.998-1.64 7.156-1.64c4.594 0 8.32 1.824 11.188 5.468q4.312 5.474 4.312 14.391 0 8.906-4.312 14.39C32.945-.834 29.219.986 24.624.986q-4.158 0-7.156-1.641-2.987-1.641-4.938-5.016m21.14-13.203q-.001-6.857-2.827-10.75-2.812-3.904-7.735-3.906-4.94.002-7.765 3.906-2.813 3.893-2.813 10.75 0 6.846 2.813 10.75 2.825 3.907 7.765 3.906 4.923.002 7.735-3.906 2.826-3.904 2.828-10.75m0 0" style="stroke:none"/></symbol><symbol id="F" overflow="visible"><path d="M12.703 5.531h-1.828L10.859 0a20 20 0 0 1-3.875-.437 21.3 21.3 0 0 1-3.859-1.25V-5q1.873 1.19 3.781 1.781c1.282.399 2.602.602 3.969.61v-8.375c-2.71-.438-4.68-1.18-5.906-2.235q-1.844-1.577-1.844-4.344-.002-2.98 2-4.703 1.999-1.732 5.75-2v-4.312h1.828v4.265a26 26 0 0 1 3.313.36c1.062.187 2.101.45 3.125.781v3.203A16.5 16.5 0 0 0 16-21.156a16 16 0 0 0-3.297-.5v7.843q4.172.645 6.14 2.297 1.97 1.658 1.97 4.516-.002 3.111-2.094 4.906Q16.64-.313 12.703-.03ZM10.875-14.14v-7.53q-2.143.233-3.266 1.218c-.742.648-1.109 1.508-1.109 2.578q0 1.595 1.031 2.469 1.046.88 3.344 1.265m1.828 3.532v7.953q2.345-.31 3.516-1.328Q17.404-5 17.406-6.641q0-1.623-1.125-2.578-1.127-.95-3.578-1.39m0 0" style="stroke:none"/></symbol><filter id="a" width="100%" height="100%" x="0%" y="0%" filterUnits="objectBoundingBox"><feColorMatrix in="SourceGraphic" values="0 0 0 0 1 0 0 0 0 1 0 0 0 0 1 0 0 0 1 0"/></filter></defs><path d="M0 0h480v480H0z" style="fill:#09136e;fill-opacity:1;stroke:none"/><use xlink:href="#k" mask="url(#l)"/><path d="M49.121 236.148h62.887a2.41 2.41 0 0 0 2.41-2.41v-18.582a2.41 2.41 0 0 0-2.41-2.41H49.12a2.41 2.41 0 0 0-2.41 2.41v18.582a2.41 2.41 0 0 0 2.41 2.41m0 0" style="stroke:none;fill-rule:nonzero;fill:#b19cfe;fill-opacity:1"/><path d="M56.602 224.445a2.47 2.47 0 0 0-2.473-2.468 2.47 2.47 0 0 0-2.469 2.468 2.47 2.47 0 1 0 4.942 0m0 0" style="stroke:none;fill-rule:nonzero;fill:#d42190;fill-opacity:1"/><path d="M62.703 224.445a2.47 2.47 0 1 0 2.469-2.468 2.47 2.47 0 0 0-2.469 2.468m0 0" style="stroke:none;fill-rule:nonzero;fill:#ffc655;fill-opacity:1"/><path d="M78.684 224.445a2.469 2.469 0 0 0-4.938 0 2.47 2.47 0 1 0 4.938 0m0 0" style="stroke:none;fill-rule:nonzero;fill:#542fd0;fill-opacity:1"/><path d="M49.121 262.68h62.887a2.41 2.41 0 0 0 2.41-2.41v-18.58a2.41 2.41 0 0 0-2.41-2.41H49.12a2.41 2.41 0 0 0-2.41 2.41v18.579a2.41 2.41 0 0 0 2.41 2.41m0 0" style="stroke:none;fill-rule:nonzero;fill:#b19cfe;fill-opacity:1"/><path d="M51.66 250.98a2.47 2.47 0 0 0 2.469 2.47 2.47 2.47 0 0 0 2.473-2.47 2.47 2.47 0 0 0-2.473-2.468 2.47 2.47 0 0 0-2.469 2.468m0 0" style="stroke:none;fill-rule:nonzero;fill:#d42190;fill-opacity:1"/><path d="M62.703 250.98a2.469 2.469 0 1 0 4.938 0 2.469 2.469 0 0 0-4.938 0m0 0" style="stroke:none;fill-rule:nonzero;fill:#ffc655;fill-opacity:1"/><path d="M73.746 250.98a2.469 2.469 0 1 0 4.938 0 2.469 2.469 0 0 0-4.938 0m0 0" style="stroke:none;fill-rule:nonzero;fill:#542fd0;fill-opacity:1"/><path d="M49.121 289.21h62.887a2.41 2.41 0 0 0 2.41-2.41v-18.577a2.41 2.41 0 0 0-2.41-2.41H49.12a2.41 2.41 0 0 0-2.41 2.41v18.582a2.41 2.41 0 0 0 2.41 2.406m0 0" style="stroke:none;fill-rule:nonzero;fill:#b19cfe;fill-opacity:1"/><path d="M56.602 277.512a2.47 2.47 0 0 0-2.473-2.469 2.47 2.47 0 0 0-2.469 2.469 2.47 2.47 0 1 0 4.942 0m0 0" style="stroke:none;fill-rule:nonzero;fill:#d42190;fill-opacity:1"/><path d="M62.703 277.512a2.47 2.47 0 1 0 2.469-2.469 2.47 2.47 0 0 0-2.469 2.469m0 0" style="stroke:none;fill-rule:nonzero;fill:#ffc655;fill-opacity:1"/><path d="M78.684 277.512a2.469 2.469 0 0 0-4.938 0 2.47 2.47 0 1 0 4.938 0m0 0" style="stroke:none;fill-rule:nonzero;fill:#542fd0;fill-opacity:1"/><path d="M116.164 133.824c0-19.504-15.812-35.316-35.316-35.316s-35.313 15.812-35.313 35.316 15.809 35.313 35.313 35.313 35.316-15.809 35.316-35.313m0 0" style="stroke:none;fill-rule:nonzero;fill:#b19cfe;fill-opacity:1"/><path d="M80.848 163.895c-16.582 0-30.07-13.493-30.07-30.07 0-16.583 13.492-30.071 30.07-30.071 16.582 0 30.07 13.488 30.07 30.07 0 16.578-13.488 30.07-30.07 30.07m0 0" style="stroke:none;fill-rule:nonzero;fill:#542fd0;fill-opacity:1"/><path d="M78.09 131.934c-9.04 6.82-14.445 12.773-13.371 14.23s8.234-2.11 17.43-8.719Zm0 0" style="stroke:none;fill-rule:nonzero;fill:#ffc655;fill-opacity:1"/><path d="M84.27 133.156c-.2-11.324-1.747-27.414-3.555-27.402-1.813.008-3.227 16.117-3.29 27.441Zm0 0" style="stroke:none;fill-rule:nonzero;fill:#ffc655;fill-opacity:1"/><path d="M85.063 133.824a4.214 4.214 0 0 0-4.215-4.215 4.21 4.21 0 0 0-4.211 4.215 4.214 4.214 0 0 0 8.426 0m0 0" style="stroke:none;fill-rule:nonzero;fill:#b19cfe;fill-opacity:1"/><path d="M350.574 123.84h-8.855a30 30 0 0 0-2.168-5.047l6.097-6.422a5.893 5.893 0 0 0-.218-8.328l-5.235-4.969a5.893 5.893 0 0 0-8.328.219l-6.094 6.422a30 30 0 0 0-3.625-1.445v-8.856a5.89 5.89 0 0 0-5.89-5.89h-7.215a5.89 5.89 0 0 0-5.89 5.89v8.856a30 30 0 0 0-3.626 1.445l-6.093-6.422a5.893 5.893 0 0 0-8.329-.219l-5.234 4.969a5.893 5.893 0 0 0-.219 8.328l6.098 6.422a30 30 0 0 0-2.168 5.047h-8.855a5.89 5.89 0 0 0-5.891 5.89v7.215a5.89 5.89 0 0 0 5.89 5.895h8.856a30 30 0 0 0 2.168 5.043l-6.098 6.422a5.893 5.893 0 0 0 .22 8.328l5.233 4.969a5.893 5.893 0 0 0 8.329-.22l6.093-6.421a30 30 0 0 0 3.625 1.445v8.856c0 3.25 2.637 5.89 5.891 5.89h7.215c3.254 0 5.89-2.64 5.89-5.89v-8.856a30 30 0 0 0 3.625-1.445l6.094 6.422a5.893 5.893 0 0 0 8.328.219l5.235-4.97a5.893 5.893 0 0 0 .218-8.327l-6.093-6.422a30.6 30.6 0 0 0 2.164-5.043h8.855c3.254 0 5.89-2.64 5.89-5.895v-7.215a5.89 5.89 0 0 0-5.89-5.89m-37.922 29.117c-10.82 0-19.617-8.8-19.617-19.617s8.797-19.617 19.617-19.617c10.817 0 19.618 8.8 19.618 19.617s-8.801 19.617-19.618 19.617m0 0" style="stroke:none;fill-rule:nonzero;fill:#542fd0;fill-opacity:1"/><path d="M392.496 144.762v192.492c0 6.035-4.894 10.926-10.937 10.926H103.75c-6.047 0-10.937-4.89-10.937-10.926V144.762c0-6.043 4.89-10.938 10.937-10.938h277.805c6.047 0 10.941 4.895 10.941 10.938m0 0" style="stroke:none;fill-rule:nonzero;fill:#d42190;fill-opacity:1"/><path d="M392.496 149.477V339.77a8.41 8.41 0 0 1-8.414 8.41H101.238a8.42 8.42 0 0 1-8.425-8.426V149.477Zm0 0" style="stroke:none;fill-rule:nonzero;fill:#ded7ff;fill-opacity:1"/><path d="M108.117 142.637c0-1.149-.93-2.078-2.074-2.078a2.076 2.076 0 0 0 0 4.152c1.144 0 2.074-.93 2.074-2.074m12.914 0c0-1.149-.93-2.078-2.074-2.078a2.076 2.076 0 0 0 0 4.152c1.145 0 2.074-.93 2.074-2.074m12.914 0c0-1.149-.93-2.078-2.074-2.078a2.076 2.076 0 0 0 0 4.152c1.145 0 2.074-.93 2.074-2.074m245.34 0 1.95-1.903a.36.36 0 0 0 .027-.468.282.282 0 0 0-.43-.028l-2.008 1.95-2.008-1.95a.282.282 0 0 0-.43.028.353.353 0 0 0 .028.468l1.95 1.903-1.95 1.898a.36.36 0 0 0-.027.469.3.3 0 0 0 .23.113c.07 0 .14-.027.2-.086l2.007-1.949 2.008 1.95a.28.28 0 0 0 .203.085.3.3 0 0 0 .227-.113.35.35 0 0 0-.028-.469Zm0 0" style="stroke:none;fill-rule:nonzero;fill:#fff;fill-opacity:1"/><path d="M99.684 158.598h100.765v178.91H99.684Zm107.562 0h176.48v97.02h-176.48Zm0 102.012h176.48v76.898h-176.48Zm0 0" style="stroke:none;fill-rule:nonzero;fill:#b19cfe;fill-opacity:1"/><path d="M214.523 102.98c-16.347-3.73-32.628 6.5-36.359 22.852-3.726 16.352 6.504 32.629 22.856 36.36 16.347 3.73 32.628-6.505 36.355-22.852 3.73-16.352-6.5-32.63-22.852-36.36m0 0" style="stroke:none;fill-rule:nonzero;fill:#ffc655;fill-opacity:1"/><path d="M207.785 159.297c-14.73 0-26.715-11.984-26.715-26.715s11.985-26.715 26.715-26.715 26.715 11.985 26.715 26.715-11.984 26.715-26.715 26.715m0-51.133c-13.46 0-24.414 10.953-24.414 24.418 0 13.461 10.953 24.414 24.414 24.414 13.465 0 24.418-10.953 24.418-24.414 0-13.465-10.953-24.418-24.418-24.418m219.844 60.16c-.383-.496-.797-.969-1.207-1.445-5.426-5.984-13.242-9.746-21.918-9.746s-16.492 3.762-21.922 9.746c-.41.476-.809.95-1.195 1.445a29.28 29.28 0 0 0-6.41 18.336 29.35 29.35 0 0 0 6.921 18.969c.399.484.82.957 1.27 1.406 5.375 5.64 12.957 9.149 21.336 9.149 8.375 0 15.957-3.508 21.332-9.149.45-.45.875-.922 1.273-1.406a29.3 29.3 0 0 0 6.93-18.969 29.26 29.26 0 0 0-6.41-18.336m-2.09 36.274c-.41.484-.848.957-1.297 1.406-3.558 3.648-8.113 6.312-13.23 7.531-1.793.45-3.66.711-5.578.758-.309.027-.622.027-.934.027-.309 0-.621 0-.934-.027a26 26 0 0 1-5.562-.746c-5.117-1.23-9.672-3.895-13.246-7.543-.45-.45-.871-.922-1.281-1.418a27.36 27.36 0 0 1-6.61-16.992c-.027-.313-.027-.621-.027-.934 0-.312 0-.62.027-.933a27.38 27.38 0 0 1 6.059-16.344 21 21 0 0 1 1.234-1.434 27.65 27.65 0 0 1 13.84-8.176 26.4 26.4 0 0 1 5.566-.75c.309-.023.622-.023.934-.023s.621 0 .934.023c1.918.051 3.785.313 5.578.762 5.402 1.293 10.18 4.195 13.84 8.153.421.46.836.945 1.234 1.445a27.4 27.4 0 0 1 6.062 16.344c.024.308.024.62.024.933s0 .621-.024.934a27.46 27.46 0 0 1-6.609 17.004m0 0" style="stroke:none;fill-rule:nonzero;fill:#542fd0;fill-opacity:1"/><path d="M419.96 185.727c-.062-4.493-.632-8.688-1.616-12.422a27 27 0 0 0-.5-1.817c-1.578-5.14-3.957-9.226-6.832-11.703-1.969-1.703-4.172-2.652-6.512-2.652-2.328 0-4.531.937-6.496 2.64-2.875 2.477-5.254 6.575-6.82 11.715a32 32 0 0 0-.524 1.817c-.973 3.734-1.543 7.93-1.605 12.422-.016.312-.016.62-.016.933s0 .621.016.934c.074 4.855.734 9.386 1.851 13.344.176.609.364 1.207.563 1.78 1.566 4.731 3.832 8.489 6.535 10.829 1.965 1.707 4.168 2.64 6.496 2.64 2.34 0 4.543-.945 6.508-2.652 2.703-2.328 4.969-6.086 6.55-10.805.184-.585.372-1.183.547-1.792 1.118-3.958 1.778-8.489 1.852-13.344.016-.309.016-.621.016-.934 0-.312 0-.62-.012-.933m-3.632 14.613c-.176.61-.363 1.207-.547 1.793-2.293 6.855-6.05 11.527-10.344 12.11q-.469.074-.937.073a6 6 0 0 1-.934-.074c-4.293-.582-8.05-5.265-10.332-12.12-.183-.587-.37-1.185-.546-1.794-1.06-3.773-1.692-8.117-1.766-12.734-.016-.313-.016-.621-.016-.934 0-.312 0-.62.016-.933.062-4.247.61-8.254 1.515-11.813a53 53 0 0 1 .512-1.805c2.242-7.359 6.137-12.425 10.617-13.035a6 6 0 0 1 .934-.074q.469-.001.938.074c4.492.61 8.386 5.676 10.628 13.035.188.582.348 1.18.497 1.805.921 3.559 1.468 7.566 1.53 11.813.016.308.016.62.016.933s0 .621-.015.934c-.074 4.617-.707 8.96-1.766 12.746m0 0" style="stroke:none;fill-rule:nonzero;fill:#542fd0;fill-opacity:1"/><path d="M426.422 166.879c-.512.375-1.031.734-1.567 1.059a36.6 36.6 0 0 1-8.789 4.171 36.7 36.7 0 0 1-10.628 1.793c-.313.024-.625.024-.938.024-.309 0-.621 0-.934-.024a36.6 36.6 0 0 1-10.617-1.793 24 24 0 0 1-1.765-.62 35.8 35.8 0 0 1-7.02-3.54 24 24 0 0 1-1.582-1.07c-.41.476-.809.95-1.195 1.445.511.375 1.02.723 1.543 1.059a40 40 0 0 0 7.73 3.922c.586.21 1.184.422 1.777.61a39.3 39.3 0 0 0 11.13 1.866c.312.012.624.012.933.012.313 0 .625 0 .938-.012a39.3 39.3 0 0 0 11.125-1.867 46 46 0 0 0 1.78-.61 40.6 40.6 0 0 0 7.743-3.921c.523-.336 1.035-.7 1.543-1.059-.383-.496-.797-.969-1.207-1.445m-.882 37.719a40 40 0 0 0-7.435-3.66c-.582-.211-1.18-.41-1.777-.598a39.5 39.5 0 0 0-10.89-1.793c-.313-.012-.625-.012-.938-.012-.309 0-.621 0-.934.012-3.78.09-7.43.71-10.878 1.781-.594.2-1.196.399-1.778.61a40 40 0 0 0-9.012 4.69c.399.49.82.962 1.27 1.407a27 27 0 0 1 1.594-1.031 37 37 0 0 1 6.707-3.285 40 40 0 0 1 1.77-.598 36.6 36.6 0 0 1 10.331-1.691c.309-.028.621-.028.934-.028.308 0 .621 0 .933.028 3.598.074 7.06.672 10.344 1.703a32 32 0 0 1 1.781.597 37 37 0 0 1 6.684 3.274c.547.324 1.07.672 1.594 1.031.445-.445.87-.918 1.27-1.406a52 52 0 0 0-1.57-1.031m-49.63-18.871h57.192v1.867H375.91Zm0 0" style="stroke:none;fill-rule:nonzero;fill:#542fd0;fill-opacity:1"/><path d="M403.574 158.063h1.867v57.19h-1.867Zm0 0" style="stroke:none;fill-rule:nonzero;fill:#542fd0;fill-opacity:1"/><path d="M409.727 141.27a5.218 5.218 0 1 1-10.434 0 5.216 5.216 0 0 1 10.434 0m7.457-7.098c-.485 0-.954-.285-1.207-.793-2.329-4.656-6.723-7.547-11.47-7.547-4.745 0-9.14 2.89-11.468 7.547-.375.75-1.219 1.016-1.887.594-.664-.422-.902-1.371-.527-2.121 2.816-5.633 8.137-9.133 13.883-9.133s11.062 3.5 13.879 9.133c.375.75.14 1.699-.528 2.12-.21.133-.445.2-.675.2m0 0" style="stroke:none;fill-rule:nonzero;fill:#b19cfe;fill-opacity:1"/><path d="M385.11 129.156a1.25 1.25 0 0 1-.676-.199c-.668-.422-.903-1.371-.528-2.121 4.18-8.36 12.074-13.55 20.602-13.55 8.527 0 16.422 5.19 20.601 13.55.375.75.141 1.7-.527 2.121s-1.508.156-1.883-.594c-3.695-7.379-10.664-11.965-18.191-11.965-7.528 0-14.5 4.586-18.188 11.965-.257.508-.726.793-1.21.793m0 0" style="stroke:none;fill-rule:nonzero;fill:#b19cfe;fill-opacity:1"/><path d="M428.734 122.777c-.484 0-.953-.285-1.207-.793-4.675-9.34-13.492-15.14-23.02-15.14s-18.343 5.8-23.015 15.14c-.375.75-1.219 1.016-1.887.594-.664-.422-.902-1.371-.527-2.121 5.16-10.316 14.906-16.727 25.43-16.727s20.27 6.41 25.43 16.727c.375.75.136 1.7-.528 2.121-.215.137-.45.2-.676.2m0 0" style="stroke:none;fill-rule:nonzero;fill:#b19cfe;fill-opacity:1"/><use xlink:href="#m" mask="url(#n)"/><path d="M380.32 88.793c0-7.68-6.226-13.902-13.902-13.902-7.68 0-13.902 6.222-13.902 13.902 0 2.773.82 5.352 2.218 7.52l-.011-.004 8.996 15.402c1.207 2.062 4.191 2.062 5.398 0l8.996-15.402-.015.004a13.83 13.83 0 0 0 2.222-7.52m-13.902 5.281a5.785 5.785 0 1 1 0-11.57 5.785 5.785 0 0 1 0 11.57m0 0" style="stroke:none;fill-rule:nonzero;fill:#d42190;fill-opacity:1"/><use xlink:href="#o" mask="url(#p)"/><path d="M128.586 176.977a14 14 0 0 0-1.168-1.067 9 9 0 0 0-.383-.305 10 10 0 0 0-.469-.347 28 28 0 0 0-.5-.336l-.043-.027a7 7 0 0 0-.457-.274 1 1 0 0 0-.16-.094 4 4 0 0 0-.312-.168c-.11-.062-.219-.125-.336-.18a4 4 0 0 0-.23-.109 9 9 0 0 0-.395-.183 6 6 0 0 0-.324-.137c-.075-.035-.164-.066-.246-.098a12 12 0 0 0-1.168-.398q-.006-.005-.012-.004c-.211-.062-.43-.121-.64-.172a10 10 0 0 0-.567-.117q-.006-.01-.012-.008a11 11 0 0 0-.637-.105c-.074-.012-.144-.028-.215-.032q-.015-.005-.03-.004a23 23 0 0 0-.575-.066c-.219-.016-.45-.031-.676-.039h-.019a9 9 0 0 0-.563-.016c-7.804 0-14.156 6.352-14.156 14.157 0 4.68 2.285 8.84 5.793 11.418a14.08 14.08 0 0 0 8.363 2.738c7.278 0 13.281-5.516 14.067-12.586v-.004c.05-.45.078-.91.086-1.371v-.195c0-3.836-1.532-7.317-4.016-9.871m-.164 11.457v.004c-.77 4.816-4.945 8.503-9.973 8.503a9.97 9.97 0 0 1-4.98-1.324c-.016-.012-.031-.015-.043-.023-.149-.082-.29-.172-.434-.262a10 10 0 0 1-1.312-1.008h-.004a10 10 0 0 1-.61-.605 3 3 0 0 1-.218-.242 10 10 0 0 1-.63-.797 7 7 0 0 1-.406-.625c-.054-.075-.093-.153-.136-.227a6 6 0 0 1-.164-.3 2 2 0 0 1-.106-.208 9 9 0 0 1-.191-.398 5 5 0 0 1-.164-.402 6 6 0 0 1-.18-.493 6 6 0 0 1-.117-.382c-.02-.075-.043-.145-.059-.22a9 9 0 0 1-.18-.809 5 5 0 0 1-.054-.335c-.02-.117-.031-.238-.047-.355-.02-.164-.027-.328-.039-.488v-.063a8 8 0 0 1-.016-.52c0-5.562 4.528-10.09 10.09-10.09a11 11 0 0 1 .563.016h.004a.2.2 0 0 0 .07.008l.078.004c.07.004.133.004.2.012.07.011.136.015.202.023a8 8 0 0 1 .899.14q.137.024.273.06c.063.011.125.03.188.046q.165.04.328.086c.062.02.125.035.187.059a7 7 0 0 1 .543.183c.102.04.204.075.305.121.086.032.172.075.262.114q.129.052.258.12l.214.106q.135.065.258.14c.082.036.153.075.227.126.082.043.168.094.25.148.082.047.164.102.25.157.039.03.086.058.125.09q.17.111.328.234.174.125.344.262.165.129.324.28.113.099.226.208.084.075.16.152c.06.05.106.102.157.156q.369.374.691.79a10 10 0 0 1 2.176 5.988c.004.09.004.172.004.258 0 .535-.043 1.062-.121 1.574zm0 0" style="stroke:none;fill-rule:nonzero;fill:#d42190;fill-opacity:1"/><path d="M127.418 175.91a9 9 0 0 0-.383-.305 10 10 0 0 0-.469-.347 28 28 0 0 0-.5-.336l-.043-.027a7 7 0 0 0-.457-.274 1 1 0 0 0-.16-.094 4 4 0 0 0-.312-.168c-.11-.062-.219-.125-.336-.18a4 4 0 0 0-.23-.109 9 9 0 0 0-.395-.183 6 6 0 0 0-.324-.137c-.075-.035-.164-.066-.246-.098a12 12 0 0 0-1.168-.398q-.006-.005-.012-.004c-.211-.062-.43-.121-.64-.172a10 10 0 0 0-.567-.117q-.006-.01-.012-.008a11 11 0 0 0-.637-.105c-.074-.012-.144-.028-.215-.032q-.015-.005-.03-.004a23 23 0 0 0-.575-.066c-.219-.016-.45-.031-.676-.039h-.019a9 9 0 0 0-.563-.016c-7.804 0-14.156 6.352-14.156 14.157 0 4.68 2.285 8.84 5.793 11.418l.012-.008a2.208 2.208 0 0 0 3.563-1.742q.001-.34-.102-.649a1.5 1.5 0 0 0-.09-.254q-.477-.27-.918-.586c-.012-.007-.024-.02-.031-.027a10 10 0 0 1-.84-.68h-.004a10 10 0 0 1-.606-.605 2.74 2.74 0 0 1-.848-1.04 7 7 0 0 1-.41-.624 2 2 0 0 1-.132-.227c-.059-.101-.118-.199-.168-.3-.035-.067-.075-.137-.106-.208-.062-.129-.129-.261-.187-.398a5 5 0 0 1-.168-.402 7 7 0 0 1-.18-.493 5 5 0 0 1-.113-.382c-.024-.075-.047-.145-.059-.22a3 3 0 0 1-.082-.327 6 6 0 0 1-.097-.48 5 5 0 0 1-.06-.337 11 11 0 0 1-.042-.355c-.02-.164-.027-.328-.043-.488v-.063a12 12 0 0 1-.012-.52c0-5.562 4.528-10.09 10.09-10.09a11 11 0 0 1 .563.016h.004a.2.2 0 0 0 .07.008l.078.004c.066.004.133.004.195.012.07.012.14.015.203.023a8 8 0 0 1 .899.14c.094.016.183.036.277.06.059.011.125.03.184.046q.166.04.332.086c.058.02.125.035.183.059q.2.059.399.129c.043.02.094.039.144.054a10 10 0 0 1 .567.235q.135.052.258.12c.074.036.144.067.218.106.086.043.176.09.258.141q.117.05.227.125.123.066.246.148.128.072.25.157.064.043.129.09.167.111.328.234c.113.082.23.172.34.262q.167.13.328.28c.074.067.152.134.226.208q.084.075.16.152.082.076.157.156.363.374.691.79l2.223-3.625a14 14 0 0 0-1.172-1.067m0 0" style="stroke:none;fill-rule:nonzero;fill:#ffc655;fill-opacity:1"/><path d="M128.586 176.977a14 14 0 0 0-1.168-1.067 9 9 0 0 0-.383-.305 10 10 0 0 0-.469-.347 28 28 0 0 0-.5-.336l-.043-.027a7 7 0 0 0-.457-.274 1 1 0 0 0-.16-.094 4 4 0 0 0-.312-.168c-.11-.062-.219-.125-.336-.18a4 4 0 0 0-.23-.109 9 9 0 0 0-.395-.183 6 6 0 0 0-.324-.137c-.075-.035-.164-.066-.246-.098a12 12 0 0 0-1.168-.398q-.006-.005-.012-.004c-.211-.062-.43-.121-.64-.172a10 10 0 0 0-.567-.117q-.006-.01-.012-.008a11 11 0 0 0-.637-.105c-.074-.012-.144-.028-.215-.032q-.015-.005-.03-.004a23 23 0 0 0-.575-.066c-.219-.016-.45-.031-.676-.039h-.019c-.39.16-.723.434-.953.773a2.212 2.212 0 0 0 .953 3.297h.004a.4.4 0 0 0 .07.004l.078.004c.07.004.133.004.2.016.07.008.136.012.202.023q.277.024.547.07c.114.02.235.043.352.067.09.02.183.035.273.059.063.015.125.035.188.046q.165.04.328.086.094.03.187.063c.133.035.266.082.395.125q.072.03.148.055c.102.039.204.074.305.12.086.032.172.075.262.118a11 11 0 0 1 .473.223q.135.064.257.14c.082.035.153.078.227.125.082.047.168.098.25.152q.122.067.25.157c.039.027.086.054.125.086q.17.111.328.234.174.125.344.262c.11.09.218.18.324.281q.113.1.226.207.084.076.16.152c.06.051.106.102.157.157q.369.374.691.789a10 10 0 0 1 2.18 6.25c0 .535-.043 1.058-.121 1.57v.016a2.22 2.22 0 0 0 1.969 1.367 2.24 2.24 0 0 0 1.367-.414 2.2 2.2 0 0 0 .758-.969v-.004q.077-.682.09-1.375v-.191a14.14 14.14 0 0 0-4.02-9.871m9.891-3.017h20.918v2.813h-20.918Zm0 5.743h48.195v2.813h-48.195Zm0 5.742h36.093v2.813h-36.093Zm0 5.743h42.93V194h-42.93Zm0 5.742h35.171v2.812h-35.171Zm37.668 0h10.527v2.812h-10.527Zm0 0" style="stroke:none;fill-rule:nonzero;fill:#542fd0;fill-opacity:1"/><use xlink:href="#q" mask="url(#r)"/><path d="M127.43 245.504q.617-.499 1.164-1.074.176-.173.336-.356.2-.21.382-.437a15 15 0 0 0 .41-.512 6 6 0 0 0 .313-.43c.04-.047.074-.101.106-.152a4 4 0 0 0 .191-.293q.113-.156.207-.32.072-.106.133-.223.11-.184.215-.379.082-.151.164-.308c.039-.075.078-.16.117-.239.086-.168.164-.332.238-.508.09-.203.18-.41.254-.62.008-.005.008-.008.008-.012.082-.207.156-.418.223-.625q.095-.275.168-.555.005-.006.004-.012c.058-.203.113-.418.16-.625q.032-.105.05-.21.01-.017.008-.028.06-.283.114-.57.052-.331.097-.672v-.016q.035-.279.063-.558c.656-7.778-5.137-14.645-12.914-15.301-4.664-.395-9 1.531-11.864 4.808a14.1 14.1 0 0 0-3.437 8.102c-.613 7.25 4.379 13.7 11.355 15.078h.004c.446.09.903.152 1.36.203l.195.016a14.1 14.1 0 0 0 10.176-3.172m-11.399-1.129h-.004c-4.734-1.172-8.058-5.645-7.632-10.652a9.9 9.9 0 0 1 1.765-4.891 9.8 9.8 0 0 1 1.414-1.633v-.004a9 9 0 0 1 .653-.554 4 4 0 0 1 .261-.2c.196-.14.39-.277.59-.406.082-.05.172-.105.258-.152q.322-.196.66-.356c.078-.043.16-.078.234-.113.11-.05.207-.098.313-.14q.11-.049.215-.09c.133-.051.273-.106.414-.153q.201-.075.414-.133a6 6 0 0 1 .508-.136 4 4 0 0 1 .39-.082c.075-.016.149-.035.227-.043.113-.024.219-.04.332-.055q.239-.033.484-.055c.114-.011.23-.023.34-.027q.181-.011.363-.016c.16-.004.329 0 .489 0l.058.008q.263.005.52.028c5.543.468 9.672 5.363 9.203 10.906a8 8 0 0 1-.055.5q-.001.023-.007.058v.004c-.008.024-.008.047-.012.07l-.012.079c-.012.066-.016.129-.031.195-.016.066-.024.137-.04.2a8 8 0 0 1-.12.538c-.028.114-.063.23-.094.344-.027.09-.05.18-.082.27l-.063.18q-.053.161-.113.323-.034.091-.074.18a7 7 0 0 1-.23.524c-.047.097-.09.199-.145.293-.04.086-.09.168-.137.254a2 2 0 0 1-.144.246q-.056.106-.121.207-.075.123-.16.246a1.6 1.6 0 0 1-.145.21c-.05.083-.11.16-.172.239-.05.078-.113.156-.176.234q-.046.061-.097.121a6 6 0 0 1-.262.305 8 8 0 0 1-.29.316q-.144.16-.308.305c-.07.067-.144.14-.226.207q-.083.078-.164.149-.082.075-.168.14-.405.334-.844.625a10.04 10.04 0 0 1-6.156 1.66q-.127-.005-.254-.02a10 10 0 0 1-1.555-.25c-.004-.003-.004-.003-.012-.003m0 0" style="stroke:none;fill-rule:nonzero;fill:#d42190;fill-opacity:1"/><path d="M128.594 244.43q.176-.173.336-.356.2-.21.382-.437a15 15 0 0 0 .41-.512 6 6 0 0 0 .313-.43c.04-.047.074-.101.106-.152a4 4 0 0 0 .191-.293q.113-.156.207-.32.072-.106.133-.223.11-.184.215-.379.082-.151.164-.308c.039-.075.078-.16.117-.239.086-.168.164-.332.238-.508.09-.203.18-.41.254-.62.008-.005.008-.008.008-.012.082-.207.156-.418.223-.625q.095-.275.168-.555.005-.006.004-.012c.058-.203.113-.418.16-.625q.032-.105.05-.21.01-.017.008-.028.06-.283.114-.57.052-.331.097-.672v-.016q.035-.279.063-.558c.656-7.778-5.137-14.645-12.914-15.301-4.664-.395-9 1.531-11.864 4.808l.008.008a2.207 2.207 0 0 0 2.09 3.656c.09-.015.172-.043.258-.07.207-.305.43-.59.664-.867l.027-.027a9 9 0 0 1 .75-.778v-.004a9 9 0 0 1 .653-.554c.085-.075.175-.141.261-.203q.289-.21.59-.403c.082-.05.172-.105.258-.152q.322-.196.66-.356c.074-.043.156-.078.234-.113.106-.05.207-.098.313-.14q.107-.049.215-.09a7 7 0 0 1 .414-.153q.201-.075.414-.133.242-.076.508-.136a4 4 0 0 1 .39-.082q.112-.03.223-.043.168-.034.336-.055.236-.036.484-.055a11 11 0 0 1 .703-.043c.16-.004.329 0 .489 0l.058.004c.176.008.348.016.52.032 5.543.468 9.672 5.359 9.203 10.906a8 8 0 0 1-.055.5c-.004.015-.004.035-.011.058v.004q-.007.036-.008.067l-.012.078c-.012.07-.016.133-.031.195-.016.07-.024.137-.04.203-.034.18-.073.364-.12.54-.028.113-.063.23-.094.343-.027.09-.05.18-.082.27l-.063.18a7 7 0 0 1-.191.5c-.047.132-.106.261-.16.386a2 2 0 0 0-.067.14 10 10 0 0 1-.285.544q-.059.13-.14.25c-.04.07-.075.136-.121.203q-.078.129-.16.246-.064.116-.145.215c-.05.078-.11.16-.172.234-.055.082-.117.156-.176.234-.031.04-.062.086-.097.121a7 7 0 0 1-.266.31c-.09.105-.188.214-.29.315-.097.102-.194.208-.304.305q-.107.101-.226.207-.083.078-.164.145c-.06.05-.114.097-.172.144q-.4.335-.84.621l3.422 2.524q.617-.505 1.164-1.078m0 0" style="stroke:none;fill-rule:nonzero;fill:#ffc655;fill-opacity:1"/><path d="M127.43 245.504q.617-.499 1.164-1.074.176-.173.336-.356.2-.21.382-.437a15 15 0 0 0 .41-.512 6 6 0 0 0 .313-.43c.04-.047.074-.101.106-.152a4 4 0 0 0 .191-.293q.113-.156.207-.32.072-.106.133-.223.11-.184.215-.379.082-.151.164-.308c.039-.075.078-.16.117-.239.086-.168.164-.332.238-.508.09-.203.18-.41.254-.62.008-.005.008-.008.008-.012.082-.207.156-.418.223-.625q.095-.275.168-.555.005-.006.004-.012c.058-.203.113-.418.16-.625q.032-.105.05-.21.01-.017.008-.028.06-.283.114-.57.052-.331.097-.672v-.016a2.13 2.13 0 0 0-.691-1.016 2.2 2.2 0 0 0-1.34-.507 2.22 2.22 0 0 0-2.027 1.18v.003q-.007.036-.008.07l-.012.079c-.012.066-.016.129-.031.195-.016.066-.024.137-.04.2a8 8 0 0 1-.12.538c-.028.114-.063.23-.094.344-.027.09-.05.18-.082.27l-.063.18a5 5 0 0 1-.191.503c-.047.13-.106.258-.16.383a2 2 0 0 0-.067.14c-.046.098-.093.2-.148.294-.04.086-.086.168-.137.254a2 2 0 0 1-.14.246l-.121.207q-.078.123-.16.246a1.6 1.6 0 0 1-.145.21c-.05.083-.11.16-.172.239-.055.078-.117.156-.176.234q-.046.061-.097.121c-.086.102-.172.207-.266.305a4 4 0 0 1-.29.316 5 5 0 0 1-.304.305c-.07.067-.148.14-.226.207q-.083.078-.164.149c-.06.05-.114.097-.172.14q-.4.334-.84.625a10.04 10.04 0 0 1-6.156 1.66 4 4 0 0 1-.258-.02 10 10 0 0 1-1.555-.25h-.012a2.2 2.2 0 0 0-1.527 1.845 2.2 2.2 0 0 0 1.195 2.234h.004c.446.09.903.156 1.36.203l.195.016a14.1 14.1 0 0 0 10.176-3.172m11.047-.856h20.918v2.813h-20.918Zm0-5.742h48.195v2.813h-48.195Zm0-5.742h36.093v2.813h-36.093Zm0-5.742h42.93v2.812h-42.93Zm0-5.742h35.171v2.812h-35.171Zm37.668 0h10.527v2.812h-10.527Zm0 0" style="stroke:none;fill-rule:nonzero;fill:#542fd0;fill-opacity:1"/><use xlink:href="#s" mask="url(#t)"/><path d="M118.602 291.578h4.886v16.508h-4.886Zm29.933-4.238h4.887v20.746h-4.887Zm0 0" style="stroke:none;fill-rule:nonzero;fill:#ffc655;fill-opacity:1"/><path d="M128.266 296.504h4.886v11.582h-4.886Zm0 0" style="stroke:none;fill-rule:nonzero;fill:#d42190;fill-opacity:1"/><path d="M110.27 296.504h4.148v11.582h-4.148Zm28.105-10h4.887v21.582h-4.887Zm0 0" style="stroke:none;fill-rule:nonzero;fill:#542fd0;fill-opacity:1"/><path d="M158.695 279.527h4.887v28.559h-4.887Zm0 0" style="stroke:none;fill-rule:nonzero;fill:#d42190;fill-opacity:1"/><path d="M168.09 273.27h4.887v34.816h-4.887Zm-60.192 20.246a.45.45 0 0 1-.324-.13c-.144-.152-.12-.374.059-.5l16.144-11.261a.48.48 0 0 1 .559.02l6.684 5.5 11.859-9.07a.47.47 0 0 1 .547-.012l6.906 4.828 21.008-17.871a.47.47 0 0 1 .594 0 .315.315 0 0 1 0 .5l-21.278 18.101a.47.47 0 0 1-.562.024l-6.922-4.84-11.887 9.09a.475.475 0 0 1-.57-.008l-6.695-5.512-15.856 11.059a.46.46 0 0 1-.266.082m71.642-23.832h3.944v3.949h-3.945Zm0 0" style="stroke:none;fill-rule:nonzero;fill:#542fd0;fill-opacity:1"/><path d="M179.54 278.297h3.944v3.95h-3.945Zm0 0" style="stroke:none;fill-rule:nonzero;fill:#ffc655;fill-opacity:1"/><path d="M179.54 286.91h3.944v3.95h-3.945Zm0 0" style="stroke:none;fill-rule:nonzero;fill:#d42190;fill-opacity:1"/><path d="M179.54 295.527h3.944v3.946h-3.945Zm0 0" style="stroke:none;fill-rule:nonzero;fill:#542fd0;fill-opacity:1"/><path d="M179.54 304.137h3.944v3.949h-3.945Zm0 0" style="stroke:none;fill-rule:nonzero;fill:#ffc655;fill-opacity:1"/><use xlink:href="#u" mask="url(#v)"/><path d="M296.383 295.988h5.129v25.567h-5.13Zm0 0" style="stroke:none;fill-rule:nonzero;fill:#542fd0;fill-opacity:1"/><path d="M307.457 302.55h5.129v19.005h-5.129Zm0 0" style="stroke:none;fill-rule:nonzero;fill:#d42190;fill-opacity:1"/><path d="M318.531 282.863h5.13v38.692h-5.13Zm0 0" style="stroke:none;fill-rule:nonzero;fill:#ffc655;fill-opacity:1"/><path d="M242.988 307.063h5.125v14.492h-5.125Zm0 0" style="stroke:none;fill-rule:nonzero;fill:#542fd0;fill-opacity:1"/><path d="M254.063 285.598h5.125v35.957h-5.125Zm0 0" style="stroke:none;fill-rule:nonzero;fill:#d42190;fill-opacity:1"/><path d="M265.133 299.953h5.129v21.602h-5.13Zm0 0" style="stroke:none;fill-rule:nonzero;fill:#ffc655;fill-opacity:1"/><path d="M239.938 326.078h33.375v2.813h-33.375Zm0 5.981h10.828v2.816h-10.828Zm13.054 0h20.32v2.816h-20.32Zm93.156-18.414h5.13v7.91h-5.13Zm0 0" style="stroke:none;fill-rule:nonzero;fill:#542fd0;fill-opacity:1"/><path d="M357.223 303.578h5.129v17.977h-5.13Zm0 0" style="stroke:none;fill-rule:nonzero;fill:#d42190;fill-opacity:1"/><path d="M368.297 293.05h5.129v28.505h-5.13Zm0 0" style="stroke:none;fill-rule:nonzero;fill:#ffc655;fill-opacity:1"/><path d="M343.098 326.078h33.379v2.813h-33.38Zm0 5.981h23.218v2.816h-23.218Zm25.445 0h7.934v2.816h-7.934Zm-75.211 0h33.379v2.816h-33.379Zm0-5.981h10.832v2.813h-10.832Zm13.058 0h20.32v2.813h-20.32Zm0 0" style="stroke:none;fill-rule:nonzero;fill:#542fd0;fill-opacity:1"/><use xlink:href="#w" mask="url(#x)"/><path d="M192.414 331.79h-54.328l2.746-5.794h54.328Zm5.098-5.794-2.75 5.793h4.16l2.746-5.793Zm6.105 0-2.746 5.793h4.16l2.746-5.793Zm5.676 0-2.746 5.793h8.383l2.75-5.793Zm0 0" style="stroke:none;fill-rule:nonzero;fill:#09136e;fill-opacity:1"/><path d="m429.406 322.059-3.36 2.53a6.634 6.634 0 0 1-9.284-1.312l-26.578-35.312 13.953-10.504 26.578 35.316a6.625 6.625 0 0 1-1.309 9.282m0 0" style="stroke:none;fill-rule:nonzero;fill:#b19cfe;fill-opacity:1"/><path d="M408.883 275.445c3.226 4.29 2.363 13.368-3.695 17.93-6.063 4.563-15.028 2.879-18.254-1.406-3.227-4.29.507-9.555 6.57-14.117 6.062-4.563 12.152-6.692 15.379-2.407m0 0" style="stroke:none;fill-rule:nonzero;fill:#d42190;fill-opacity:1"/><path d="M382.324 229.473c-15.52-2.243-29.918 8.527-32.156 24.047-2.238 15.515 8.527 29.914 24.047 32.152s29.914-8.527 32.156-24.047c2.238-15.52-8.527-29.914-24.047-32.152m0 0" style="stroke:none;fill-rule:nonzero;fill:#b19cfe;fill-opacity:1"/><use xlink:href="#y" mask="url(#z)"/><use xlink:href="#A" mask="url(#B)"/><path d="M397.86 283.64c-14.376 10.82-34.868 7.926-45.688-6.445-10.817-14.375-7.926-34.867 6.45-45.687 14.374-10.817 34.866-7.926 45.687 6.449 10.816 14.371 7.925 34.867-6.45 45.684m-34.145-45.363c-10.64 8.008-12.781 23.18-4.774 33.825 8.008 10.64 23.184 12.78 33.825 4.773 10.64-8.008 12.78-23.184 4.773-33.824s-23.184-12.785-33.824-4.774m-240.257 95.367-8.129-1.133c-.3-1.684-.75-3.328-1.34-4.907l6.414-5.117a5.46 5.46 0 0 0 .871-7.672l-4.168-5.23a5.463 5.463 0 0 0-7.675-.867l-6.414 5.113a28 28 0 0 0-3.141-1.789l1.133-8.129a5.46 5.46 0 0 0-4.653-6.164l-6.625-.922a5.46 5.46 0 0 0-6.164 4.652l-1.132 8.13q-1.795.32-3.512.863l-4.77-6.676a5.465 5.465 0 0 0-7.62-1.266l-5.442 3.887a5.464 5.464 0 0 0-1.266 7.621l4.774 6.672a28 28 0 0 0-2.637 4.355l-8.125-1.136a5.465 5.465 0 0 0-6.164 4.656l-.926 6.621a5.465 5.465 0 0 0 4.652 6.164l8.13 1.133a28 28 0 0 0 1.343 4.91l-6.418 5.113a5.455 5.455 0 0 0-.867 7.672l4.168 5.235a5.46 5.46 0 0 0 7.672.867l6.418-5.113c1 .66 2.05 1.253 3.14 1.789l-1.136 8.125a5.465 5.465 0 0 0 4.656 6.164l6.625.925a5.463 5.463 0 0 0 6.16-4.656l1.137-8.125q1.788-.32 3.508-.863l4.773 6.676a5.46 5.46 0 0 0 7.617 1.265l5.442-3.89a5.46 5.46 0 0 0 1.265-7.618l-4.773-6.675a28 28 0 0 0 2.637-4.352l8.125 1.133a5.46 5.46 0 0 0 6.164-4.652l.925-6.625a5.46 5.46 0 0 0-4.652-6.164m-38.543 21.87c-9.93-1.386-16.879-10.59-15.496-20.519 1.387-9.93 10.594-16.883 20.523-15.496s16.88 10.594 15.496 20.523c-1.386 9.93-10.593 16.88-20.523 15.493m94.754 17.98-5.7-2.195c.067-1.274.016-2.54-.144-3.785l5.512-2.621a4.066 4.066 0 0 0 1.926-5.418l-2.14-4.497a4.06 4.06 0 0 0-5.415-1.921l-5.516 2.62a21 21 0 0 0-1.972-1.827l2.191-5.7a4.06 4.06 0 0 0-2.332-5.25l-4.644-1.789a4.06 4.06 0 0 0-5.254 2.332l-2.196 5.7q-1.355-.071-2.687.035l-2.336-5.649a4.065 4.065 0 0 0-5.309-2.203l-4.601 1.902a4.067 4.067 0 0 0-2.203 5.31l2.332 5.644a21 21 0 0 0-2.645 2.71l-5.7-2.19a4.065 4.065 0 0 0-5.253 2.331l-1.789 4.645a4.064 4.064 0 0 0 2.336 5.254l5.7 2.195a20.7 20.7 0 0 0 .144 3.781l-5.516 2.625a4.065 4.065 0 0 0-1.922 5.418l2.137 4.496a4.07 4.07 0 0 0 5.418 1.922l5.515-2.625a21 21 0 0 0 1.973 1.828l-2.195 5.7a4.064 4.064 0 0 0 2.336 5.253l4.644 1.79a4.064 4.064 0 0 0 5.254-2.333l2.196-5.699q1.349.07 2.687-.035l2.332 5.645a4.07 4.07 0 0 0 5.309 2.207l4.601-1.903a4.07 4.07 0 0 0 2.207-5.308l-2.336-5.645a21.5 21.5 0 0 0 2.649-2.71l5.699 2.19a4.065 4.065 0 0 0 5.254-2.331L182 378.75a4.06 4.06 0 0 0-2.332-5.254m-31.629 9.348c-6.965-2.68-10.45-10.528-7.77-17.492s10.524-10.45 17.489-7.77c6.965 2.684 10.453 10.527 7.77 17.492-2.68 6.965-10.528 10.453-17.489 7.77m0 0" style="stroke:none;fill-rule:nonzero;fill:#542fd0;fill-opacity:1"/><path d="M250.352 360.473c0-14.094-11.422-25.516-25.516-25.516-14.09 0-25.512 11.422-25.512 25.516 0 14.09 11.422 25.511 25.512 25.511 14.094 0 25.516-11.421 25.516-25.511m0 0" style="stroke:none;fill-rule:nonzero;fill:#d42190;fill-opacity:1"/><path d="M231.32 350.219a6.483 6.483 0 1 1-12.966.002 6.483 6.483 0 0 1 12.966-.002m5.72 24.414v-5.774c0-5.68-5.446-10.28-12.169-10.28h-.066c-6.72 0-12.168 4.6-12.168 10.28v5.774Zm0 0" style="stroke:none;fill-rule:nonzero;fill:#09136e;fill-opacity:1"/><path d="M416.113 353.676c0-16.774-13.597-30.367-30.367-30.367-16.773 0-30.367 13.593-30.367 30.367 0 16.77 13.594 30.367 30.367 30.367 16.77 0 30.367-13.598 30.367-30.367m0 0" style="stroke:none;fill-rule:nonzero;fill:#ffc655;fill-opacity:1"/><path d="M385.746 380.387c-14.73 0-26.715-11.98-26.715-26.711s11.985-26.715 26.715-26.715 26.715 11.984 26.715 26.715-11.984 26.71-26.715 26.71m0-51.13c-13.465 0-24.414 10.954-24.414 24.419 0 13.46 10.95 24.414 24.414 24.414 13.461 0 24.414-10.953 24.414-24.414 0-13.465-10.953-24.418-24.414-24.418m0 0" style="stroke:none;fill-rule:nonzero;fill:#542fd0;fill-opacity:1"/><path d="M210.2 108.3a2.414 2.414 0 1 1-4.829 0 2.413 2.413 0 1 1 4.828 0m104.864-6.972a2.414 2.414 0 1 1-4.829 0 2.413 2.413 0 1 1 4.828 0m0 0" style="stroke:none;fill-rule:nonzero;fill:#fff;fill-opacity:1"/><path d="M208.234 110.035h-.894v-32.61c0-5.843 4.754-10.597 10.597-10.597H302.5c5.844 0 10.598 4.754 10.598 10.598v23.855h-.895V77.426c0-5.352-4.355-9.703-9.703-9.703h-84.562c-5.352 0-9.704 4.351-9.704 9.703ZM80.566 161.48a2.413 2.413 0 1 1 0 4.829 2.413 2.413 0 0 1-2.414-2.414 2.41 2.41 0 0 1 2.414-2.415m0 52.723a2.413 2.413 0 1 1 0 4.828 2.413 2.413 0 0 1-2.414-2.414 2.41 2.41 0 0 1 2.414-2.414m0 0" style="stroke:none;fill-rule:nonzero;fill:#fff;fill-opacity:1"/><path d="M80.117 165.25h.895v50.602h-.895Zm304.02 211.934a2.416 2.416 0 0 1 4.832 0 2.414 2.414 0 0 1-2.418 2.414 2.413 2.413 0 0 1-2.414-2.414m-234.071 9.824a2.416 2.416 0 0 1 2.414-2.414 2.416 2.416 0 0 1 0 4.832 2.414 2.414 0 0 1-2.414-2.418m0 0" style="stroke:none;fill-rule:nonzero;fill:#fff;fill-opacity:1"/><path d="M376.402 412.55h-213.77c-5.843 0-10.6-4.753-10.6-10.6v-15.985h.894v15.984c0 5.352 4.355 9.707 9.703 9.707h213.77c5.351 0 9.703-4.355 9.703-9.707v-23.664H387v23.664c0 5.848-4.754 10.602-10.598 10.602m0 0" style="stroke:none;fill-rule:nonzero;fill:#fff;fill-opacity:1"/><g style="fill:#09136e;fill-opacity:1"><use xlink:href="#C" x="218.215" y="231.959"/><use xlink:href="#D" x="263.651" y="231.959"/><use xlink:href="#E" x="294.969" y="231.959"/></g><use xlink:href="#F" x="195.789" y="145.878" style="fill:#09136e;fill-opacity:1"/><use xlink:href="#F" x="373.746" y="366.972" style="fill:#09136e;fill-opacity:1"/></svg>